Coordinates
version=1
nRows=8
nColumns=40
inDegrees=yes

Units are S.I. units (second, meters, Newtons, ...)
If the header above contains a line with 'inDegrees', this indicates whether rotational values are in degrees (yes) or radians (no).

endheader
time	pelvis_tilt	pelvis_list	pelvis_rotation	pelvis_tx	pelvis_ty	pelvis_tz	hip_flexion_r	hip_adduction_r	hip_rotation_r	knee_angle_r	knee_angle_r_beta	ankle_angle_r	subtalar_angle_r	mtp_angle_r	hip_flexion_l	hip_adduction_l	hip_rotation_l	knee_angle_l	knee_angle_l_beta	ankle_angle_l	subtalar_angle_l	mtp_angle_l	lumbar_extension	lumbar_bending	lumbar_rotation	arm_flex_r	arm_add_r	arm_rot_r	elbow_flex_r	pro_sup_r	wrist_flex_r	wrist_dev_r	arm_flex_l	arm_add_l	arm_rot_l	elbow_flex_l	pro_sup_l	wrist_flex_l	wrist_dev_l
      0.00000000	    -26.13988048	      5.58543920	      1.17532460	      0.07556586	      1.27922594	      0.00429216	     93.62597637	     -4.58537177	     12.83149883	    111.19271256	      1.94067894	    -12.65510566	    -13.34359430	      0.00000000	     59.41182297	     -2.11635823	     -9.33812054	     39.25067437	      0.68505350	    -20.69515941	    -14.32666108	      0.00000000	    -29.16685230	     -6.97469685	      2.58099772	     65.18091952	      9.55089631	    -57.28191110	     35.43789411	     82.11506182	      0.00000000	      0.00000000	     59.41584722	     12.33130847	    -43.87287593	     34.51978367	      6.43139859	      0.00000000	      0.00000000
      0.01700000	    -26.00831325	      5.38795122	      1.17432275	      0.07504228	      1.27941091	      0.00452482	     95.27508449	     -3.87069028	     13.31366176	    110.97592247	      1.93689524	    -12.10098634	    -13.45375826	      0.00000000	     57.37540085	     -1.91907107	     -8.02336574	     38.70820665	      0.67558565	    -20.08671231	    -14.91522977	      0.00000000	    -29.17779730	     -6.56597903	      2.64292388	     64.99283687	      9.71296559	    -57.20018244	     35.51083331	     82.00639931	      0.00000000	      0.00000000	     59.14599839	     12.24589957	    -43.94898283	     34.49810389	      6.55796596	      0.00000000	      0.00000000
      0.03300000	    -25.79875732	      5.15735436	      1.21643019	      0.07463014	      1.27955906	      0.00462567	     96.80849585	     -3.26941785	     13.75412830	    110.73060846	      1.93261370	    -11.52438306	    -13.50527674	      0.00000000	     55.24007638	     -1.69336545	     -6.63406368	     38.11758050	      0.66527728	    -19.54102927	    -15.76199924	      0.00000000	    -29.26442621	     -6.09284346	      2.70492041	     64.79075868	      9.86847316	    -57.10576555	     35.65659384	     81.89813470	      0.00000000	      0.00000000	     58.86153973	     12.20419821	    -44.05988970	     34.46908321	      6.67006724	      0.00000000	      0.00000000
      0.05000000	    -25.15016469	      4.89893941	      1.66976670	      0.07472175	      1.28041277	      0.00373836	     97.61478859	     -3.30842620	     13.94404251	    110.12364742	      1.92202023	    -10.77834976	    -13.38909515	      0.00000000	     53.21502915	     -1.09009608	     -5.13003098	     38.43703428	      0.67085280	    -19.36930966	    -18.11531883	      0.00000000	    -29.94513825	     -5.40157017	      2.36853731	     64.71000150	      9.99325856	    -56.97530889	     35.87542824	     81.75944317	      0.00000000	      0.00000000	     58.75899352	     12.23532219	    -44.21650448	     34.51653921	      6.81964348	      0.00000000	      0.00000000
      0.06700000	    -24.94286955	      4.72022875	      1.89230743	      0.07479155	      1.28076047	      0.00314862	     98.69711162	     -3.11804056	     13.68366360	    108.85591109	      1.89989406	    -10.59759411	    -13.75264076	      0.00000000	     52.33944208	     -0.90350819	     -4.40940547	     39.89928455	      0.69637388	    -19.35744672	    -19.66348480	      0.00000000	    -30.23288103	     -5.04702184	      2.22130330	     64.74875074	     10.13382588	    -57.10457613	     35.98875738	     81.45515970	      0.00000000	      0.00000000	     58.68323330	     12.17026155	    -44.12233373	     34.57855433	      7.19659693	      0.00000000	      0.00000000
      0.08300000	    -24.73516771	      4.56833677	      2.11479200	      0.07515188	      1.28112308	      0.00256697	     99.49603509	     -2.99432704	     13.11349181	    107.12705970	      1.86971991	    -10.64377136	    -14.42503923	      0.00000000	     51.98388615	     -0.86758352	     -4.10711993	     42.28206811	      0.73796130	    -19.13038696	    -20.93597329	      0.00000000	    -30.57609535	     -4.80339710	      2.06351718	     64.83232965	     10.30413744	    -57.33336912	     36.20044955	     81.35920478	      0.00000000	      0.00000000	     58.67410554	     12.08672423	    -43.83299345	     34.61370672	      7.35957550	      0.00000000	      0.00000000
      0.10000000	    -24.52556754	      4.38622922	      2.33587858	      0.07538050	      1.28159869	      0.00208067	     99.71886221	     -2.91621255	     12.48579945	    104.84280275	      1.82985210	    -10.75947016	    -15.07552361	      0.00000000	     52.16327897	     -0.90503556	     -3.66886658	     45.40304215	      0.79243258	    -19.07438869	    -22.20636273	      0.00000000	    -30.91943268	     -4.56345694	      1.89194315	     64.93617202	     10.47593743	    -57.60768383	     36.41077830	     81.34571294	      0.00000000	      0.00000000	     58.70479009	     11.99642987	    -43.50268647	     34.73857679	      7.43849755	      0.00000000	      0.00000000
      0.11700000	    -24.36028600	      4.27126423	      2.53261724	      0.07553535	      1.28202282	      0.00177986	     99.28353577	     -2.83361130	     12.00323133	    101.95611662	      1.77946993	    -10.73676282	    -15.49843950	      0.00000000	     52.99717246	     -0.93977077	     -3.00331254	     49.32731315	      0.86092403	    -19.38362926	    -23.37307166	      0.00000000	    -31.17096462	     -4.43301445	      1.64014275	     65.03786714	     10.64838063	    -57.84658882	     36.51903956	     81.47373681	      0.00000000	      0.00000000	     58.74650265	     11.92007432	    -43.36711007	     34.92262420	      7.35017719	      0.00000000	      0.00000000
